# xmcd
#
# Track frame offsets:
#	150
#	13636
#	23356
#	34948
#	49230
#	61738
#	77084
#	90151
#	104175
#	118241
#	132019
#	145235
#
# Disc length: 2077 seconds
#
# Revision: 0
# Processed by: cddbd v1.4PL0 Copyright (c) Steve Scherf et al.
# Submitted via: EasyCDDAExtractor 4.5.2.1
#
DISCID=96081b0c
DTITLE=Amar Azul - Cumbia Nena
DYEAR=1900
DGENRE=cumbiancha
TTITLE0=La Vecina
TTITLE1=Tomo Para Olvidarte
TTITLE2=Quiero Confestarte
TTITLE3=El Travieso
TTITLE4=El Segundo Polvito
TTITLE5=Quiero Tu Cuerpo
TTITLE6=Un Licor y Una Cerveza
TTITLE7=Explicale
TTITLE8=Yo Me Enamore
TTITLE9=Vos Sos Loca
TTITLE10=Sin Tu Amor
TTITLE11=Sueño De Amor
EXTD=
EXTT0=
EXTT1=
EXTT2=
EXTT3=
EXTT4=
EXTT5=
EXTT6=
EXTT7=
EXTT8=
EXTT9=
EXTT10=
EXTT11=
PLAYORDER=
